<svg xmlns="http://www.w3.org/2000/svg" width="96.603" height="96" viewBox="0 0 96.603 96">
  <g id="logo_white_50x50" transform="translate(-131.791 -130.954)">
    <g id="Group_5" data-name="Group 5" transform="translate(131.791 130.954)">
      <g id="Group_4" data-name="Group 4">
        <g id="Group_3" data-name="Group 3">
          <g id="Group_2" data-name="Group 2" opacity="0.85">
            <g id="Group_1" data-name="Group 1">
              <path id="Path_3" data-name="Path 3" d="M181.75,153.8c-.05-.52-.11-1.04-.16-1.56.01.26.01.53,0,.79A2.967,2.967,0,0,0,181.75,153.8Z" transform="translate(-85.147 -111.208)" fill="#fff"/>
              <path id="Path_4" data-name="Path 4" d="M181.34,150.82c-.02-.09-.04-.19-.05-.27s-.05-.16-.07-.23Z" transform="translate(-85.147 -113.37)" fill="#fff"/>
              <path id="Path_5" data-name="Path 5" d="M180.6,148.2q.2.69.42,1.32Q180.87,148.95,180.6,148.2Z" transform="translate(-85.147 -115.034)" fill="#fff"/>
              <path id="Path_6" data-name="Path 6" d="M181.11,150.3c0-.17.02-.26.1,0v.01c-.07-.26-.13-.52-.2-.79A4.9,4.9,0,0,1,181.11,150.3Z" transform="translate(-85.147 -113.998)" fill="#fff"/>
              <path id="Path_7" data-name="Path 7" d="M181.11,150.3c.01.18.01.41.02.51A4.7,4.7,0,0,0,181.11,150.3Z" transform="translate(-85.147 -113.384)" fill="#fff"/>
              <path id="Path_8" data-name="Path 8" d="M180.15,149.84c-.1-.25.15-.25-.06-.74-.22-.58-.42-1.12-.64-1.63-.25-.5-.49-1-.71-1.53a17.55,17.55,0,0,0-.7-1.74,9.659,9.659,0,0,0-.65-.98c-.28-.33-.56-.68-.8-.96-.46-.54-.7-.75-.19,0a22.617,22.617,0,0,1,3.23,6.23,24.045,24.045,0,0,1,1.43,5.89c.02.59.01,1.13,0,1.69a21.307,21.307,0,0,0,.03-2.28,10.843,10.843,0,0,0-.3-1.78C180.59,151.36,180.35,150.65,180.15,149.84Z" transform="translate(-85.147 -117.392)" fill="#fff"/>
              <path id="Path_9" data-name="Path 9" d="M179.89,165.02c.08-.26.23-.78.23-.78a7.647,7.647,0,0,0,.66-1.73c.08-.3.16-.6.24-.91.06-.31.09-.63.14-.94-.07.17-.15.35-.22.53-.14.71-.12.8.1.19-.52,1.39-.92,2.71-1.48,4.01C179.65,165.34,179.71,165.38,179.89,165.02Z" transform="translate(-85.147 -101.491)" fill="#fff"/>
              <path id="Path_10" data-name="Path 10" d="M179.26,166.17l.3-.78c-.01,0-.02.01-.03.02-.09.26-.19.53-.28.79Z" transform="translate(-85.147 -99.491)" fill="#fff"/>
              <path id="Path_11" data-name="Path 11" d="M222.838,153.944A48.941,48.941,0,0,0,209.159,139.8a4.582,4.582,0,0,1-1.338-.7,14.114,14.114,0,0,0-1.181-.95c-.787-.513-1.653-.893-2.46-1.348-.3-.133-.59-.285-.905-.418l-.02-.019c-.492-.19-.394-.057-.138.152.3.209.571.418.787.589-.157-.114-.512-.38-.787-.589-.374-.247-.787-.513-1.279-.8-.807-.3-1.653-.608-2.5-.968a22.336,22.336,0,0,1,2.5.968c.492.228.964.437,1.437.665.138.057.276.114.433.171a52.012,52.012,0,0,0-5.885-2.6,9.08,9.08,0,0,0-1.3-.4,18.335,18.335,0,0,1-3.9-1.2c-.374-.076-.748-.152-1.142-.228l.217.076c-.157-.038-.3-.095-.413-.114a41.455,41.455,0,0,0-4.842-.8c-1.063,0-2.185,0-3.267-.019a3.112,3.112,0,0,0-.413-.095c-.236-.038-.512-.095-.689-.133a9.8,9.8,0,0,1-1.83.247c.886.133,1.673.266,2.421.342,1.063.247,2.46-.266,3.7.247-1.24-.513-2.637,0-3.7-.247-.748-.076-1.535-.228-2.421-.342-1.555.038-3.523.19-5.176.152a13.411,13.411,0,0,1,5.176-.152,9.8,9.8,0,0,0,1.83-.247c.177.038.453.095.689.133a3.114,3.114,0,0,1,.413.095c1.083,0,2.185,0,3.267.019a47.8,47.8,0,0,0-9.762-.152,49.755,49.755,0,0,0-28.421,11.755,47.933,47.933,0,0,0-15.529,26.587,46.923,46.923,0,0,0,16.218,45.729,48.224,48.224,0,0,0,14.309,8.223,56.61,56.61,0,0,0,16.376,3.456,58.283,58.283,0,0,0,17.242-1.785,46.327,46.327,0,0,0,15.687-7.615,47.892,47.892,0,0,0,11.691-12.363c.374-.627.689-1.177.984-1.709.216-.532.413-1.025.61-1.462a13.124,13.124,0,0,0,.65-2.07c.236-1.044.079-1.443-.236-1.519-.63-.152-1.85.988-2.008,1.177-1.181,1.272-2.145,2.526-3.248,3.741-.531.627-1.043,1.272-1.575,1.937-.59.646-1.181,1.31-1.811,1.994a38.1,38.1,0,0,1-11.908,9.21c3.976-2.26,2.775-1.063-.571,1.025a34.888,34.888,0,0,1-13.718,4.444c-6.279.456-13.778.7-21.394-1.158-7.519-1.861-15.195-5.507-20.41-10.9-.669-.665-1.319-1.329-2.008-2.013-.649-.7-1.26-1.481-1.909-2.241-.335-.38-.65-.76-.984-1.158-.3-.418-.59-.836-.886-1.272-.59-.874-1.24-1.728-1.791-2.678a44.459,44.459,0,0,1-5-32.151,43.511,43.511,0,0,1,19.8-27.308,51.95,51.95,0,0,1,16.376-6.856,43.394,43.394,0,0,1,11.711-.4,66.39,66.39,0,0,1,7.263.95,63.153,63.153,0,0,1,6.436,1.766,52.009,52.009,0,0,0-6.377-1.88,55.076,55.076,0,0,0-6.987-.912c-1.771-.133-1.161-.228.217-.285.689-.019,1.575-.076,2.441-.019.866.095,1.693.171,2.283.247a8.323,8.323,0,0,1,1.771.475,8.881,8.881,0,0,0,1.732.627c1.063.3,2.106.513,3.169.8,1.043.342,2.106.684,3.248,1.044,1,.285.709.627,1.181.817,1.456.684,2.815,1.2,4.054,1.652a19.1,19.1,0,0,1,3.051,1.709,31.3,31.3,0,0,1,3.385,2.773,24.01,24.01,0,0,1,1.988,1.747c.433.38.886.76,1.338,1.139a1.366,1.366,0,0,1-.217-.893c.59.627,1.437,1.5,1.968,2.165-.531-.665-1.378-1.538-1.968-2.165a1.366,1.366,0,0,0,.217.893,41.834,41.834,0,0,1,8.778,10.578v-.076c-1.279-2.374-2.716-4.539-4.192-6.951.689,1.007.492.95-.413-.095l-.512-.95c.413.437.827.893,1.24,1.329.394.456.728.95,1.083,1.443a15.248,15.248,0,0,1,1.771,3.019s.59.855.886,1.272c.315.7.157.741.138.931.256.456.531.912.787,1.367C224.314,157.21,222.838,153.944,222.838,153.944Z" transform="translate(-131.791 -130.954)" fill="#fff"/>
              <path id="Path_12" data-name="Path 12" d="M167.35,133.45c.17.09.39.19.61.3l-.61-.33-.64-.27-1.28-.54A9.334,9.334,0,0,0,167.35,133.45Z" transform="translate(-98.709 -130.954)" fill="#fff"/>
            </g>
          </g>
        </g>
      </g>
    </g>
  </g>
</svg>
